<?xml version="1.0" encoding="UTF-8" standalone="no"?>
<svg
   xmlns:dc="http://purl.org/dc/elements/1.1/"
   xmlns:cc="http://creativecommons.org/ns#"
   xmlns:rdf="http://www.w3.org/1999/02/22-rdf-syntax-ns#"
   xmlns:svg="http://www.w3.org/2000/svg"
   xmlns="http://www.w3.org/2000/svg"
   viewBox="0 0 84.333336 94.493332"
   height="94.493332"
   width="84.333336"
   xml:space="preserve"
   id="svg2"
   version="1.1"><metadata
     id="metadata8"><rdf:RDF><cc:Work
         rdf:about=""><dc:format>image/svg+xml</dc:format><dc:type
           rdf:resource="http://purl.org/dc/dcmitype/StillImage" /></cc:Work></rdf:RDF></metadata><defs
     id="defs6" /><g
     transform="matrix(1.3333333,0,0,-1.3333333,0,94.493333)"
     id="g10"><g
       transform="scale(0.1)"
       id="g12"><path
         id="path14"
         style="fill:#176fc1;fill-opacity:1;fill-rule:nonzero;stroke:none"
         d="M 632.539,0 V 708.66 H 0 V 0 h 632.539" /><path
         id="path16"
         style="fill:#ffffff;fill-opacity:1;fill-rule:nonzero;stroke:none"
         d="m 483.418,554.859 c -30.398,26.387 -71.113,39.61 -122.051,39.61 H 140.156 V 84.1875 H 245.391 V 267.754 H 353.32 c 56.289,0 99.7,12.566 130.098,37.312 30.227,24.946 45.52,67.715 45.52,127.664 0,55.141 -15.293,95.969 -45.52,122.129 z m -80.535,-181.05 c -13.879,-11.993 -33.508,-18.016 -58.481,-18.016 h -99.011 v 150.031 h 99.011 c 24.973,0 44.602,-5.547 58.481,-16.992 13.847,-11.219 20.867,-30.199 20.867,-56.68 0,-26.476 -7.02,-45.906 -20.867,-58.343" /></g></g></svg>